<svg width="17" height="16" viewBox="0 0 17 16" xmlns="http://www.w3.org/2000/svg">
<path fill-rule="evenodd" clip-rule="evenodd" d="M1.03805 6.96189C1.03804 6.96188 1.03803 6.96188 1.03802 6.96189L4.26611e-05 7.99987C3.6939e-05 7.99987 3.6939e-05 7.99988 4.26611e-05 7.99989C4.83831e-05 7.9999 4.83831e-05 7.99991 4.2661e-05 7.99991L3.31243e-05 7.99992C1.97729e-05 7.99993 1.97729e-05 7.99995 3.31243e-05 7.99997L1.03799 9.03793C1.038 9.03794 1.03802 9.03794 1.03804 9.03793C1.03805 9.03791 1.03807 9.03791 1.03808 9.03793L7.78505 15.7849C8.07169 16.0715 8.53642 16.0715 8.82306 15.7849C9.10969 15.4983 9.10969 15.0335 8.82306 14.7469L4.51721 10.4411C3.88725 9.81109 4.33341 8.73395 5.22432 8.73395L15.6436 8.73395C16.0489 8.73395 16.3776 8.40533 16.3776 7.99997C16.3776 7.5946 16.049 7.26599 15.6436 7.26599L5.22419 7.26599C4.33328 7.26599 3.88712 6.18884 4.51708 5.55888L8.82304 1.25293C9.10967 0.96629 9.10967 0.501561 8.82304 0.214924C8.5364 -0.0717132 8.07167 -0.0717132 7.78503 0.214923L1.03807 6.96189C1.03806 6.96189 1.03805 6.96189 1.03805 6.96189Z" fill="#404040"/>
</svg>
