<svg width="10" height="10" viewBox="0 0 10 10" xmlns="http://www.w3.org/2000/svg">
<path fill-rule="evenodd" clip-rule="evenodd" d="M0.901391 0.154392C0.695534 -0.0514641 0.361775 -0.0514641 0.155919 0.154392C-0.0499377 0.360249 -0.0499377 0.694008 0.155919 0.899864L3.54817 4.29211C3.93869 4.68264 3.93869 5.3158 3.54817 5.70633L0.154393 9.1001C-0.051464 9.30596 -0.0514643 9.63972 0.154392 9.84558C0.360249 10.0514 0.694008 10.0514 0.899865 9.84558L4.29364 6.4518C4.68417 6.06128 5.31733 6.06128 5.70786 6.4518L9.10158 9.84553C9.30744 10.0514 9.6412 10.0514 9.84705 9.84553C10.0529 9.63967 10.0529 9.30591 9.84705 9.10006L6.45333 5.70633C6.0628 5.3158 6.0628 4.68264 6.45333 4.29212L9.84553 0.899913C10.0514 0.694057 10.0514 0.360298 9.84553 0.154441C9.63967 -0.0514152 9.30591 -0.0514158 9.10006 0.154441L5.70785 3.54664C5.31733 3.93717 4.68417 3.93717 4.29364 3.54664L0.901391 0.154392Z" fill="#151515"/>
</svg>
