<svg width="30" height="30" viewBox="0 0 30 30" xmlns="http://www.w3.org/2000/svg">
<path fill-rule="evenodd" clip-rule="evenodd" d="M16 1C16 0.447715 15.5523 0 15 0C14.4477 0 14 0.447716 14 1V13C14 13.5523 13.5523 14 13 14L1 14C0.447715 14 0 14.4477 0 15C0 15.5523 0.447716 16 1 16L13 16C13.5523 16 14 16.4477 14 17V29C14 29.5523 14.4477 30 15 30C15.5523 30 16 29.5523 16 29V17C16 16.4477 16.4477 16 17 16L29 16C29.5523 16 30 15.5523 30 15C30 14.4477 29.5523 14 29 14L17 14C16.4477 14 16 13.5523 16 13V1Z" fill="#49B858"/>
</svg>
