<svg width="16" height="16" viewBox="0 0 16 16" xmlns="http://www.w3.org/2000/svg">
<g clip-path="url(#clip0_1734_4895)">
<path d="M15.1379 7.52861L13.8046 6.19527L8.47128 0.861939C8.34626 0.736958 8.17672 0.666748 7.99995 0.666748C7.82317 0.666748 7.65363 0.736958 7.52861 0.861939L2.19528 6.19527L0.861946 7.52861C0.740507 7.65434 0.673311 7.82274 0.67483 7.99754C0.676349 8.17234 0.746461 8.33955 0.870067 8.46315C0.993672 8.58676 1.16088 8.65687 1.33568 8.65839C1.51048 8.65991 1.67888 8.59271 1.80461 8.47127L1.99995 8.27594V14.6666C1.99995 14.8434 2.07018 15.013 2.19521 15.138C2.32023 15.263 2.4898 15.3333 2.66661 15.3333H13.3333C13.5101 15.3333 13.6797 15.263 13.8047 15.138C13.9297 15.013 13.9999 14.8434 13.9999 14.6666V8.27594L14.1953 8.47127C14.321 8.59271 14.4894 8.65991 14.6642 8.65839C14.839 8.65687 15.0062 8.58676 15.1298 8.46315C15.2534 8.33955 15.3235 8.17234 15.3251 7.99754C15.3266 7.82274 15.2594 7.65434 15.1379 7.52861ZM12.6666 13.9999H3.33328V6.94261L7.99995 2.27594L12.6666 6.94261V13.9999Z" fill="#8A8A8A"/>
</g>
<defs>
<clipPath id="clip0_1734_4895">
<rect width="16" height="16" fill="white"/>
</clipPath>
</defs>
</svg>
