<svg width="22" height="22" viewBox="0 0 22 22" xmlns="http://www.w3.org/2000/svg">
<path fill-rule="evenodd" clip-rule="evenodd" d="M1.10083 9.68629L0.393727 10.3934C0.00320214 10.7839 0.00320116 11.4171 0.393725 11.8076L1.10083 12.5147L10.2932 21.7071C10.6837 22.0976 11.3169 22.0976 11.7074 21.7071V21.7071C12.098 21.3166 12.098 20.6834 11.7074 20.2929L5.22224 13.8077C4.59227 13.1777 5.03844 12.1006 5.92934 12.1006L21 12.1006C21.5523 12.1006 22 11.6529 22 11.1006V11.1006C22 10.5483 21.5523 10.1006 21 10.1006L5.92918 10.1006C5.03827 10.1006 4.59211 9.02344 5.22207 8.39348L11.7074 1.90811C12.098 1.51759 12.098 0.884426 11.7074 0.493902V0.493902C11.3169 0.103378 10.6837 0.103378 10.2932 0.493902L1.10083 9.68629Z" fill="#404040"/>
</svg>
