<svg width="16" height="16" viewBox="0 0 16 16" xmlns="http://www.w3.org/2000/svg">
<g clip-path="url(#clip0_1727_2953)">
<path d="M13 6.27815V4.99999C13 2.24317 10.7568 0 7.99998 0C5.24316 0 2.99999 2.24317 2.99999 4.99999V6.27815C2.40509 6.62502 2 7.2629 2 8V14C2 15.103 2.89696 16 3.99998 16H12C13.103 16 14 15.103 14 14V8C14 7.26287 13.5949 6.62499 13 6.27815ZM7.99998 1.99998C9.65428 1.99998 11 3.34567 11 4.99999V5.99998H4.99998V4.99999C4.99998 3.3457 6.34569 1.99998 7.99998 1.99998ZM8.99998 11.6107V13H6.99999V11.6107C6.69517 11.3362 6.5 10.9425 6.5 10.5C6.5 9.67155 7.17155 8.99999 7.99998 8.99999C8.82842 8.99999 9.49997 9.67155 9.49997 10.5C9.49997 10.9425 9.3048 11.3362 8.99998 11.6107Z" fill="#404040"/>
</g>
<defs>
<clipPath id="clip0_1727_2953">
<rect width="16" height="16" fill="white"/>
</clipPath>
</defs>
</svg>
