<svg width="24" height="24" viewBox="0 0 24 24" xmlns="http://www.w3.org/2000/svg">
<path fill-rule="evenodd" clip-rule="evenodd" d="M12.5595 13.5555C12.2274 13.8025 11.7726 13.8025 11.4405 13.5555L1.875 6.44057V5.06262C1.875 4.54487 2.29475 4.12512 2.8125 4.12512H21.1875C21.7052 4.12512 22.125 4.54487 22.125 5.06262V6.44057L12.5595 13.5555ZM13.6786 15.0599C13.6786 15.0599 13.6786 15.0599 13.6786 15.0599L24 7.38273V5.06262C24 3.50933 22.7408 2.25012 21.1875 2.25012H2.8125C1.25922 2.25012 0 3.50933 0 5.06262V7.38273L10.3214 15.0599C11.3178 15.801 12.6822 15.801 13.6786 15.0599Z" fill="white"/>
<path d="M22.125 11.114V18.9375C22.125 19.4544 21.7044 19.875 21.1875 19.875H2.8125C2.29556 19.875 1.875 19.4544 1.875 18.9375V11.114L0 9.71939V18.9375C0 20.4883 1.26169 21.75 2.8125 21.75H21.1875C22.7383 21.75 24 20.4883 24 18.9375V9.71939L22.125 11.114Z" fill="white"/>
</svg>
