<svg width="10" height="10" viewBox="0 0 10 10" xmlns="http://www.w3.org/2000/svg">
<path fill-rule="evenodd" clip-rule="evenodd" d="M0 1C0 0.447715 0.447715 0 1 0C1.55228 0 2 0.447715 2 1C2 1.55228 1.55228 2 1 2C0.447715 2 0 1.55228 0 1ZM0 5C0 4.44772 0.447715 4 1 4C1.55228 4 2 4.44772 2 5C2 5.55228 1.55228 6 1 6C0.447715 6 0 5.55228 0 5ZM2 9C2 8.44771 1.55228 8 1 8C0.447715 8 0 8.44771 0 9C0 9.55229 0.447715 10 1 10C1.55228 10 2 9.55229 2 9ZM4 1C4 0.447715 4.44772 0 5 0C5.55228 0 6 0.447715 6 1C6 1.55228 5.55228 2 5 2C4.44772 2 4 1.55228 4 1ZM6 5C6 4.44772 5.55228 4 5 4C4.44772 4 4 4.44772 4 5C4 5.55228 4.44772 6 5 6C5.55228 6 6 5.55228 6 5ZM4 9C4 8.44771 4.44772 8 5 8C5.55228 8 6 8.44771 6 9C6 9.55229 5.55228 10 5 10C4.44772 10 4 9.55229 4 9ZM10 1C10 0.447715 9.55229 0 9 0C8.44771 0 8 0.447715 8 1C8 1.55228 8.44771 2 9 2C9.55229 2 10 1.55228 10 1ZM8 5C8 4.44772 8.44771 4 9 4C9.55229 4 10 4.44772 10 5C10 5.55228 9.55229 6 9 6C8.44771 6 8 5.55228 8 5ZM10 9C10 8.44771 9.55229 8 9 8C8.44771 8 8 8.44771 8 9C8 9.55229 8.44771 10 9 10C9.55229 10 10 9.55229 10 9Z" fill="#151515"/>
</svg>
