<svg width="22" height="22" viewBox="0 0 22 22" xmlns="http://www.w3.org/2000/svg">
<path fill-rule="evenodd" clip-rule="evenodd" d="M20.8992 12.3137L21.6063 11.6066C21.9968 11.2161 21.9968 10.5829 21.6063 10.1924L20.8992 9.48528L11.7068 0.292893C11.3163 -0.0976317 10.6831 -0.0976313 10.2926 0.292893V0.292893C9.90204 0.683417 9.90204 1.31658 10.2926 1.70711L16.7778 8.19231C17.4077 8.82227 16.9616 9.89941 16.0707 9.89941L1 9.89941C0.447715 9.89941 0 10.3471 0 10.8994V10.8994C0 11.4517 0.447715 11.8994 1 11.8994L16.0708 11.8994C16.9617 11.8994 17.4079 12.9766 16.7779 13.6065L10.2926 20.0919C9.90204 20.4824 9.90204 21.1156 10.2926 21.5061V21.5061C10.6831 21.8966 11.3163 21.8966 11.7068 21.5061L20.8992 12.3137Z" fill="#404040"/>
</svg>
