<svg width="24" height="24" viewBox="0 0 24 24" fill="none" xmlns="http://www.w3.org/2000/svg">
<g clip-path="url(#clip0_1725_2166)">
<path d="M3.62657 24H20.3732C22.1288 24 23.5555 22.5733 23.5555 20.8178V4.95998C23.5555 3.20442 22.1288 1.77774 20.3732 1.77774H19.111V0.888872C19.111 0.399978 18.711 0 18.2221 0C17.7332 0 17.3332 0.399978 17.3332 0.888872V1.77774H6.66659V0.888872C6.66659 0.399978 6.26654 0 5.77765 0C5.28875 0 4.88877 0.399978 4.88877 0.888872V1.77774H3.62657C1.87101 1.77774 0.444336 3.20442 0.444336 4.95998V20.8178C0.444336 22.5733 1.87101 24 3.62657 24ZM2.22216 4.95998C2.22216 4.18667 2.85326 3.55556 3.62657 3.55556H4.88877V4.44444C4.88877 4.93333 5.28875 5.33331 5.77765 5.33331C6.26654 5.33331 6.66652 4.93333 6.66652 4.44444V3.55556H17.3332V4.44444C17.3332 4.93333 17.7332 5.33331 18.2221 5.33331C18.711 5.33331 19.111 4.93333 19.111 4.44444V3.55556H20.3732C21.1465 3.55556 21.7776 4.18667 21.7776 4.95998V20.8178C21.7776 21.5911 21.1465 22.2222 20.3732 22.2222H3.62657C2.85326 22.2222 2.22216 21.5911 2.22216 20.8178V4.95998Z" fill="#8A8A8A"/>
<path d="M6.88892 10.2222C7.50256 10.2222 8.00001 9.72473 8.00001 9.11109C8.00001 8.49745 7.50256 8 6.88892 8C6.27528 8 5.77783 8.49745 5.77783 9.11109C5.77783 9.72473 6.27528 10.2222 6.88892 10.2222Z" fill="#8A8A8A"/>
<path d="M11.7776 10.2222C12.3912 10.2222 12.8887 9.72473 12.8887 9.11109C12.8887 8.49745 12.3912 8 11.7776 8C11.164 8 10.6665 8.49745 10.6665 9.11109C10.6665 9.72473 11.164 10.2222 11.7776 10.2222Z" fill="#8A8A8A"/>
<path d="M16.6668 10.2222C17.2804 10.2222 17.7778 9.72473 17.7778 9.11109C17.7778 8.49745 17.2804 8 16.6668 8C16.0531 8 15.5557 8.49745 15.5557 9.11109C15.5557 9.72473 16.0531 10.2222 16.6668 10.2222Z" fill="#8A8A8A"/>
<path d="M6.88892 14.6666C7.50256 14.6666 8.00001 14.1692 8.00001 13.5555C8.00001 12.9419 7.50256 12.4445 6.88892 12.4445C6.27528 12.4445 5.77783 12.9419 5.77783 13.5555C5.77783 14.1692 6.27528 14.6666 6.88892 14.6666Z" fill="#8A8A8A"/>
<path d="M11.7776 14.6666C12.3912 14.6666 12.8887 14.1692 12.8887 13.5555C12.8887 12.9419 12.3912 12.4445 11.7776 12.4445C11.164 12.4445 10.6665 12.9419 10.6665 13.5555C10.6665 14.1692 11.164 14.6666 11.7776 14.6666Z" fill="#8A8A8A"/>
<path d="M16.6668 14.6666C17.2804 14.6666 17.7778 14.1692 17.7778 13.5555C17.7778 12.9419 17.2804 12.4445 16.6668 12.4445C16.0531 12.4445 15.5557 12.9419 15.5557 13.5555C15.5557 14.1692 16.0531 14.6666 16.6668 14.6666Z" fill="#8A8A8A"/>
<path d="M6.88892 19.1111C7.50256 19.1111 8.00001 18.6136 8.00001 18C8.00001 17.3864 7.50256 16.8889 6.88892 16.8889C6.27528 16.8889 5.77783 17.3864 5.77783 18C5.77783 18.6136 6.27528 19.1111 6.88892 19.1111Z" fill="#8A8A8A"/>
<path d="M11.7776 19.1111C12.3912 19.1111 12.8887 18.6136 12.8887 18C12.8887 17.3864 12.3912 16.8889 11.7776 16.8889C11.164 16.8889 10.6665 17.3864 10.6665 18C10.6665 18.6136 11.164 19.1111 11.7776 19.1111Z" fill="#8A8A8A"/>
<path d="M16.6668 19.1111C17.2804 19.1111 17.7778 18.6136 17.7778 18C17.7778 17.3864 17.2804 16.8889 16.6668 16.8889C16.0531 16.8889 15.5557 17.3864 15.5557 18C15.5557 18.6136 16.0531 19.1111 16.6668 19.1111Z" fill="#8A8A8A"/>
</g>
<defs>
<clipPath id="clip0_1725_2166">
<rect width="24" height="24" fill="white"/>
</clipPath>
</defs>
</svg>
