<svg width="24" height="24" viewBox="0 0 24 24" fill="none" xmlns="http://www.w3.org/2000/svg">
<g clip-path="url(#clip0_1569_226)">
<path fill-rule="evenodd" clip-rule="evenodd" d="M9.18772 7.2002L19.7431 4.3877C20.5559 5.74257 21.0237 7.32812 21.0237 9.02312C21.0237 11.0626 20.3467 12.9437 19.2057 14.4549L12.0002 23.9996L12.0002 23.9997L12.0002 23.9996L8.48535 19.3437L10.723 16.3709L9.18772 7.2002Z" fill="#31AA52"/>
<path d="M12 14.6745L14.7153 11.0673L12 9.02344L9.1875 11.849L12 14.6745Z" fill="#F69411"/>
<path d="M12 0L9.1875 3.0923L12 6.18459L14.3127 0.299672C13.5745 0.104484 12.7995 0 12 0V0Z" fill="#4086F4"/>
<path d="M4.79102 3.59672V9.02344H12.0005V0C9.05411 0 6.43788 1.41234 4.79102 3.59672Z" fill="#4086F4"/>
<path d="M4.79053 3.59668C3.65189 5.10699 2.97656 6.98626 2.97656 9.0234C2.97656 10.7183 3.44442 12.3037 4.25728 13.6584L10.6909 8.03799L4.79053 3.59668Z" fill="#EB4132"/>
<path fill-rule="evenodd" clip-rule="evenodd" d="M12 3.37227L14.3127 0.299805C16.6107 0.907398 18.5492 2.39863 19.7429 4.3882L14.7153 11.0674H8.60156L10.1268 7.61368L9.28461 6.97972L12 3.37231L12 3.37227Z" fill="#609AF6"/>
<path fill-rule="evenodd" clip-rule="evenodd" d="M4.25684 13.6584L9.28418 6.97949L11.9996 9.02338V10.0633L14.7148 11.0672L11.9996 14.6745L11.9996 14.6745V14.6745L8.48468 19.344L4.79402 14.4552C4.60123 14.1999 4.42207 13.9338 4.25684 13.6584Z" fill="#FBBD00"/>
<path fill-rule="evenodd" clip-rule="evenodd" d="M12 12.4219C10.1231 12.4219 8.60156 10.9004 8.60156 9.02344C8.60156 7.14652 10.1231 5.625 12 5.625C13.8769 5.625 15.3984 7.14652 15.3984 9.02344C15.3984 10.9004 13.8769 12.4219 12 12.4219Z" fill="white"/>
</g>
<defs>
<clipPath id="clip0_1569_226">
<rect width="24" height="24" fill="white"/>
</clipPath>
</defs>
</svg>
