<svg width="170" height="50" viewBox="0 0 170 50" fill="none" xmlns="http://www.w3.org/2000/svg">
<g clip-path="url(#clip0_1909_317)">
<path fill-rule="evenodd" clip-rule="evenodd" d="M31.0943 4.47146C31.2637 4.44123 31.5696 4.29255 31.7137 4.22326C32.0664 4.05569 32.4141 3.87048 32.7579 3.68527C33.012 3.54794 33.2636 3.40935 33.5164 3.27076C36.2129 1.78909 39.5263 0 42.6804 0C46.7839 0 50.5524 1.68452 53.2855 4.73479C55.934 7.69056 57.317 11.5295 57.317 15.4844C57.317 17.019 57.1653 18.5687 56.939 20.0857C56.6735 21.8647 56.2955 23.6311 55.8493 25.3736L55.8025 25.5563L55.7999 25.5651L55.7532 25.744V25.7465L55.7481 25.7616C55.7165 25.8801 55.6849 25.9985 55.6533 26.1169V26.1207L55.6053 26.2946L55.6027 26.3046L55.5989 26.3185L55.561 26.4596L55.5522 26.4911L55.5484 26.5062L55.5054 26.6637L55.5016 26.6776L55.4978 26.6927L55.4763 26.7708L55.4548 26.8477L55.4498 26.8641L55.4321 26.9245L55.403 27.0278L55.3967 27.0493L55.3878 27.0795L55.3436 27.2345L55.2968 27.397L55.2829 27.4461L55.2778 27.465L55.2551 27.5419L55.2361 27.6049L55.2323 27.6187L55.2298 27.625L55.1868 27.7737L55.1818 27.7901L55.178 27.8052L55.14 27.935L55.1211 27.9992L55.0832 28.1252L55.0579 28.2097L55.049 28.2374L55.0263 28.3142V28.3193L55.0073 28.3785L55.0035 28.3911L54.9795 28.4679L54.9605 28.5309L54.9567 28.5448L54.9327 28.6216L54.9087 28.6985L54.9037 28.7161L54.8847 28.7754L54.8607 28.8522V28.8585L54.8367 28.9291L54.8126 29.0059L54.7886 29.0828V29.0853L54.781 29.108L54.7431 29.2289L54.7166 29.3133L54.6925 29.3902V29.3927L54.6685 29.4671L54.6432 29.5439L54.618 29.6208L54.5927 29.6976L54.5674 29.7745L54.5421 29.8513L54.5168 29.9282L54.5092 29.9534L54.47 30.0731L54.4675 30.0819L54.4422 30.1588L54.417 30.2356L54.3917 30.3125C53.6256 32.5992 52.7495 34.852 51.7938 37.0493C51.0694 38.7136 50.2882 40.3591 49.4336 41.9617C48.713 43.3123 47.933 44.6491 47.0633 45.9128C46.0431 47.3945 44.1026 49.9861 42.0711 49.9849C40.7487 49.9849 39.9207 48.9933 39.5048 47.8304C38.8335 45.9531 38.314 43.999 37.7868 42.0764C37.6718 41.6581 37.5567 41.2385 37.4417 40.8202C37.0687 39.4746 36.687 38.129 36.2508 36.8011C35.8577 35.6041 35.419 34.3996 34.8729 33.2619C34.213 31.8848 32.9855 29.7027 31.2005 29.7027H31.0007C29.5394 29.7027 28.4547 31.367 27.8428 32.4934C27.3308 33.4358 26.9099 34.4463 26.5357 35.4504C26.1147 36.5793 25.7456 37.7296 25.3967 38.8825C25.0806 39.9257 24.7823 40.9752 24.4839 42.0234C23.9315 43.9662 23.3854 45.9355 22.6951 47.8355C22.2704 49.0059 21.4297 50 20.0973 50C18.0645 50 16.1354 47.4701 15.1013 45.9884C14.2303 44.7398 13.4503 43.4156 12.7297 42.0764C11.8764 40.4901 11.0989 38.861 10.3796 37.2118C8.73744 33.4509 7.34685 29.5212 6.33931 25.5424C5.89306 23.7798 5.5176 21.9919 5.25465 20.1915C5.0271 18.6393 4.87793 17.0568 4.87793 15.487C4.87793 11.5333 6.26093 7.69308 8.90937 4.73731C11.6387 1.68452 15.4059 0 19.5107 0C22.4777 0 25.556 1.56104 28.1563 2.9835C28.2727 3.04271 30.3598 4.16656 30.4774 4.22326C30.6202 4.29129 30.9261 4.43997 31.0955 4.47146H31.0943ZM51.0884 32.0801L51.1301 31.9693L51.1453 31.9289L51.1567 31.8974L51.1921 31.8004L51.2085 31.7551L51.211 31.7475L51.2515 31.6366L51.2565 31.624L51.2907 31.5295V31.5245L51.3324 31.4136L51.3349 31.4061L51.3728 31.3015L51.3804 31.2813L51.407 31.207L51.4133 31.1906L51.4537 31.0798L51.4815 31.0029L51.4942 30.9676L51.5245 30.8819L51.5334 30.8555L51.5726 30.7434L51.5852 30.7068L51.5966 30.6728L51.6396 30.5518L51.6472 30.5317L51.6509 30.5203L51.6901 30.4082L51.6939 30.3981L51.7217 30.3162L51.7281 30.2961L51.7672 30.184V30.1814L51.8052 30.0718L51.8115 30.0529L51.8393 29.971L51.8431 29.9597L51.881 29.8475L51.8873 29.8299L51.9 29.7921L51.9379 29.6812L51.9506 29.6422L51.9948 29.5112L52.0062 29.4784L52.0112 29.4645C52.0466 29.36 52.0808 29.2541 52.1149 29.1483L52.1326 29.0941L52.1794 28.9492L52.2325 28.7829L52.24 28.7602L52.2881 28.6103L52.2919 28.5964L52.2995 28.575L52.3387 28.4528L52.3538 28.4049L52.3981 28.2651L52.4158 28.2071L52.4474 28.1038L52.4663 28.0446L52.5017 27.9312L52.5068 27.9148L52.5245 27.8594L52.57 27.7107V27.7044L52.6168 27.5583L52.6332 27.5028L52.6408 27.4776L52.6749 27.3642L52.6775 27.3554L52.685 27.3302L52.7242 27.2005L52.7356 27.1614C52.7685 27.0518 52.8001 26.9409 52.8329 26.8313L52.8355 26.8225L52.8431 26.7973L52.8759 26.6839L52.8797 26.6713L52.8961 26.6146C52.9442 26.4483 52.991 26.282 53.0377 26.1157V26.1106L53.0403 26.1056L53.082 25.9531L53.0921 25.9179L53.1326 25.773L53.1376 25.7541L53.1452 25.7276L53.1831 25.589L53.1894 25.5676L53.235 25.4L53.2375 25.3912L53.283 25.2186L53.2868 25.2035L53.3234 25.0624L53.3386 25.0057L53.3765 24.8608C53.8076 23.1939 54.1742 21.5018 54.4359 19.7984C54.6533 18.3785 54.805 16.922 54.805 15.4844C54.805 13.8717 54.5156 12.254 53.9682 10.7371C53.4537 9.30956 52.7065 7.96271 51.7445 6.78594C49.469 4.00403 46.2833 2.50346 42.6804 2.50346C40.0914 2.50346 36.9638 4.2346 34.7313 5.46176C34.3735 5.65831 34.0183 5.86998 33.6707 6.08542C33.5215 6.1774 32.945 6.53521 32.7402 6.72168C32.9008 6.83886 33.2636 7.01147 33.3698 7.0606C33.8261 7.27227 34.3078 7.45496 34.7857 7.61245C35.0145 7.68804 35.2445 7.75734 35.4772 7.81908C36.8513 8.18193 38.2811 8.41628 39.6919 8.58007C40.3619 8.65692 41.0382 8.72118 41.7108 8.75646C41.8916 8.75898 42.1899 8.7867 42.2164 9.01222C42.243 9.23775 41.9447 9.34358 41.7664 9.38894C41.683 9.41666 41.5692 9.43682 41.4858 9.45445C41.2392 9.50737 40.9889 9.55021 40.7399 9.58801C39.8727 9.71904 38.9878 9.78077 38.1104 9.78077C35.9854 9.78077 33.9096 9.36248 31.9539 8.53471C31.471 8.3306 31.021 8.07106 30.5696 7.80648C29.7897 7.34912 29.0526 6.8376 28.3295 6.29709C28.1424 6.15724 27.9566 6.01361 27.7708 5.87124C27.3473 5.54618 26.9036 5.1934 26.4535 4.90866C24.5294 3.69031 21.8304 2.50472 19.512 2.50472C15.9091 2.50472 12.7234 4.00529 10.4479 6.7872C8.46817 9.20751 7.38731 12.3687 7.38731 15.4844C7.38731 16.9573 7.53648 18.4465 7.75392 19.9017C8.01181 21.6253 8.37589 23.3375 8.80697 25.0258C9.77912 28.8346 11.1052 32.6068 12.6779 36.2089C13.3656 37.7838 14.1089 39.3385 14.9218 40.853C15.6006 42.1179 16.3364 43.3779 17.1593 44.5559C17.5702 45.1455 18.0063 45.7326 18.4804 46.2744C18.7509 46.5844 19.0505 46.8993 19.3754 47.1551C19.5069 47.2584 19.8748 47.523 20.0631 47.4953C20.0821 47.4928 20.0998 47.4877 20.115 47.4764C20.1933 47.4184 20.2932 47.0757 20.3286 46.98C20.9974 45.138 21.527 43.2216 22.0618 41.3368C22.2021 40.8404 22.3437 40.3452 22.4865 39.8501C22.8772 38.4919 23.2804 37.1349 23.7355 35.7956C24.1565 34.5571 24.6243 33.3186 25.1919 32.1393C26.3182 29.8009 28.1007 27.1954 30.9969 27.1954H31.1967C34.1675 27.1954 35.9778 29.7619 37.1357 32.1784C37.7008 33.3577 38.161 34.5962 38.5731 35.836C39.0168 37.1702 39.4062 38.5234 39.7829 39.8778C39.9245 40.3881 40.0648 40.8983 40.2039 41.4086C40.4732 42.3939 40.7424 43.3791 41.0294 44.3593C41.286 45.24 41.5578 46.1207 41.8663 46.985C41.8903 47.053 42.0091 47.4272 42.0635 47.4663C42.0736 47.4739 42.0913 47.4776 42.1027 47.4802C42.1596 47.4902 42.3151 47.4121 42.3631 47.3857C42.5818 47.2647 42.7942 47.0871 42.9787 46.9195C43.2948 46.6322 43.5881 46.3097 43.8624 45.9834C44.2619 45.5071 44.6335 45.0032 44.9862 44.4916C45.8092 43.2972 46.545 42.0234 47.2264 40.7446C48.043 39.2126 48.7901 37.6402 49.4842 36.0489C50.0518 34.7461 50.589 33.4207 51.0897 32.0801H51.0884Z" fill="#689BCA"/>
<path fill-rule="evenodd" clip-rule="evenodd" d="M72.1699 10.2754H79.6313C83.0984 10.2754 86.9431 11.079 89.0783 14.0662C90.2036 15.6412 90.6307 17.5266 90.6307 19.4366C90.6307 21.4788 90.1312 23.4979 88.9041 25.159C86.8938 27.8787 83.5901 28.8115 80.3343 28.8115H74.601V13.891C74.601 13.324 74.5856 12.3759 74.1709 11.9349C73.8996 11.646 73.4757 11.5861 73.098 11.5861H72.1715V10.2769L72.1699 10.2754ZM96.572 12.1239V18.3503H103.862V20.1988H96.572V26.9645H100.91C103.084 26.9645 104.357 26.3299 105.139 24.2539L105.26 23.9312L106.554 24.2539L105.459 27.2149C105.068 28.2752 104.2 28.813 103.071 28.813H93.3685V13.8926C93.3685 13.3256 93.3531 12.3775 92.9384 11.9365C92.6671 11.6476 92.2432 11.5877 91.8655 11.5877H90.9374V10.2785H102.828C104.545 10.2785 105.51 11.1205 105.51 12.8169V15.2217H104.197V14.836C104.197 12.8569 103.102 12.127 101.209 12.127H96.5736L96.572 12.1239ZM121.316 22.8894V10.2754H123.171V29.0804H122.058L111.018 15.3908V28.8115H109.164V13.891C109.164 12.4082 108.721 11.5846 107.121 11.5846H106.464V10.2754H108.607C110.229 10.2754 111.532 10.7671 112.554 12.0348L121.316 22.8909V22.8894ZM133.837 12.1239V28.8115H130.632V12.1239H128.588C126.695 12.1239 125.6 12.8554 125.6 14.833V15.2187H124.285V12.8139C124.285 11.1175 125.251 10.2754 126.968 10.2754H139.911V12.1239H133.836H133.837ZM148.577 23.6976H141.539L139.379 28.8115H137.323L145.213 10.2754H146.539L152.579 24.9146C152.893 25.6768 153.354 26.7509 154.103 27.1888C154.444 27.3886 154.835 27.4685 155.227 27.5038L155.579 27.5361V28.7131L155.303 28.7961C154.936 28.9052 154.493 28.9467 154.111 28.9467C151.646 28.9467 150.019 27.4285 149.159 25.2004L148.58 23.6976H148.577ZM159.627 26.9629H169.212V28.8115H156.422V13.891C156.422 13.324 156.406 12.3759 155.992 11.9349C155.72 11.646 155.296 11.5861 154.919 11.5861H153.992V10.2769H156.81C157.479 10.2769 158.249 10.3292 158.787 10.7717C159.613 11.4524 159.628 12.9199 159.628 13.8926V26.9645L159.627 26.9629ZM77.8862 12.3237V26.8216C78.6585 26.9783 79.4741 27.0982 80.2541 27.0982C81.4843 27.0982 82.6821 26.7908 83.7273 26.1347C85.995 24.7118 86.9154 22.1165 86.9154 19.5442C86.9154 16.9719 86.0644 14.5933 83.9802 13.1319C82.8656 12.3513 81.5568 11.9902 80.2017 11.9902C79.4355 11.9902 78.6354 12.1193 77.8877 12.3252L77.8862 12.3237ZM145.056 15.4215L142.276 21.8491H147.724L145.056 15.4215Z" fill="#689BCA"/>
<path fill-rule="evenodd" clip-rule="evenodd" d="M79.8423 43.4788V40.885C79.8423 40.3871 79.9256 39.9185 80.2956 39.5528C80.8444 39.0088 81.8264 38.9228 82.5556 38.9228H82.7113V39.542H82.5556C82.2873 39.542 81.9651 39.5804 81.7786 39.7956C81.5581 40.0506 81.5504 40.5362 81.5504 40.8527V43.8445L81.4764 43.8891C80.2586 44.6313 79.013 44.8848 77.5978 44.8848C74.3696 44.8848 72.1729 42.2972 72.1729 39.1671C72.1729 36.2214 74.0367 33.7598 77.1337 33.7598C77.9369 33.7598 78.7756 33.8612 79.534 34.1332C80.0582 34.3206 80.6147 34.6172 80.9739 35.0521C81.4055 35.5745 81.3963 36.581 81.3963 37.2356V37.3908H80.8043L80.7781 37.2678C80.4035 35.5499 79.3722 34.6863 77.5978 34.6863C75.0587 34.6863 74.0336 36.9313 74.0336 39.1655C74.0336 40.8435 74.3897 42.9195 76.1209 43.6709C76.5865 43.8737 77.0921 43.9536 77.5978 43.9536C78.4102 43.9536 79.1255 43.8414 79.8439 43.4742L79.8423 43.4788ZM86.4188 39.8662H85.5787V44.5775H83.8721V36.08C83.8721 35.7328 83.8613 35.1811 83.607 34.9122C83.4374 34.7324 83.1799 34.6909 82.9425 34.6909H82.477V34.0717H86.6624C88.5694 34.0717 90.6937 34.6986 90.6937 37.0081C90.6937 38.5647 89.6747 39.3884 88.3011 39.7372L89.8181 42.2572C90.0524 42.6475 90.3268 43.0701 90.6475 43.3958C90.8587 43.6109 91.0899 43.7815 91.3797 43.8752C91.5138 43.9198 91.6526 43.9444 91.7929 43.9582L91.9332 43.972V44.5175L91.8468 44.5606C91.5971 44.685 91.1238 44.7311 90.8479 44.7311C90.5719 44.7311 90.3253 44.7004 90.074 44.622C89.647 44.4868 89.3016 44.2317 88.9949 43.9121C88.5786 43.4788 88.2271 42.9302 87.9234 42.4139L86.4188 39.8647V39.8662ZM91.7775 39.3238C91.7775 37.6259 92.3664 35.891 93.7183 34.7939C94.5816 34.0917 95.6299 33.7613 96.7383 33.7613C97.8468 33.7613 98.8951 34.0917 99.7584 34.7939C101.11 35.8926 101.699 37.6274 101.699 39.3238C101.699 41.0202 101.11 42.7566 99.7584 43.8537C98.8951 44.556 97.8468 44.8848 96.7383 44.8848C95.6299 44.8848 94.5816 44.5544 93.7183 43.8537C92.3664 42.7551 91.7775 41.0202 91.7775 39.3238ZM103.401 40.0199V36.08C103.401 35.7328 103.39 35.1811 103.136 34.9122C102.966 34.7324 102.709 34.6909 102.472 34.6909H102.006V34.0717H103.557C103.922 34.0717 104.354 34.0978 104.648 34.3406C105.102 34.714 105.108 35.5484 105.108 36.0816V40.484C105.108 41.389 105.223 42.5492 105.919 43.2145C106.398 43.6724 107.052 43.8046 107.696 43.8046C108.435 43.8046 109.244 43.6878 109.803 43.1653C110.599 42.4262 110.687 41.031 110.687 40.0199V34.0717H111.618V40.0199C111.618 43.0608 110.822 44.7327 107.51 44.7327C104.197 44.7327 103.401 42.9871 103.401 40.0199ZM115.648 40.4071V44.5775H113.941V36.08C113.941 35.7328 113.93 35.1811 113.676 34.9122C113.506 34.7324 113.249 34.6909 113.012 34.6909H112.546V34.0717H116.731C118.862 34.0717 120.763 34.8738 120.763 37.317C120.763 38.4464 120.302 39.3592 119.297 39.9062C118.683 40.2396 117.897 40.4087 117.197 40.4087H115.648V40.4071ZM85.5802 35.0444V38.892C85.9024 38.9643 86.2662 39.0134 86.5869 39.0134C87.0709 39.0134 87.6259 38.8152 88.0175 38.5401C88.5416 38.1714 88.833 37.6505 88.833 37.0066C88.833 36.3628 88.554 35.7927 88.0159 35.4039C87.6244 35.1212 87.0725 34.9214 86.5869 34.9214C86.2662 34.9214 85.9024 34.9706 85.5802 35.0428V35.0444ZM99.837 39.3238C99.837 37.8103 99.4685 35.7712 97.9855 34.9875C97.5986 34.7816 97.1746 34.6894 96.7368 34.6894C96.299 34.6894 95.8766 34.7816 95.4881 34.9875C94.0051 35.7712 93.6382 37.8103 93.6382 39.3238C93.6382 40.8374 94.0066 42.8764 95.4881 43.6601C95.875 43.8645 96.299 43.9582 96.7368 43.9582C97.1746 43.9582 97.597 43.866 97.9855 43.6601C99.4685 42.8749 99.837 40.8374 99.837 39.3238ZM115.648 35.0444V39.4329C115.97 39.5051 116.334 39.5543 116.654 39.5543C117.148 39.5543 117.693 39.3484 118.079 39.0472C118.654 38.597 118.9 37.9562 118.9 37.2386C118.9 36.521 118.654 35.8787 118.079 35.4301C117.693 35.1289 117.148 34.923 116.654 34.923C116.334 34.923 115.97 34.9721 115.648 35.0444Z" fill="#49B858"/>
<path d="M69.4793 19.5443C69.5317 19.5963 69.5151 19.6795 69.4742 19.7614C69.4346 19.8394 69.3745 19.916 69.3362 19.9589L69.3272 19.968C60.3982 29.5373 48.1721 36.4095 35.339 39.0507C23.4068 41.5061 10.9494 40.3024 0.13035 34.2063L0 34.1335L0.140574 34.1816C13.2791 38.6296 25.6023 39.0286 36.6208 36.7162C49.4475 34.023 60.5056 27.6539 69.0231 19.7185C69.0768 19.6691 69.1867 19.5742 69.2914 19.5326C69.3605 19.5053 69.4282 19.5001 69.4767 19.5456L69.4793 19.5443Z" fill="#49B858"/>
</g>
<defs>
<clipPath id="clip0_1909_317">
<rect width="169.512" height="50" fill="white"/>
</clipPath>
</defs>
</svg>
