<svg width="139" height="41" viewBox="0 0 139 41" fill="none" xmlns="http://www.w3.org/2000/svg">
<g clip-path="url(#clip0_1802_5542)">
<path fill-rule="evenodd" clip-rule="evenodd" d="M25.4974 3.6666C25.6363 3.6418 25.8872 3.51989 26.0054 3.46307C26.2946 3.32566 26.5796 3.17379 26.8616 3.02192C27.07 2.90931 27.2762 2.79567 27.4836 2.68202C29.6947 1.46705 32.4117 0 34.998 0C38.3629 0 41.4531 1.3813 43.6942 3.88253C45.8659 6.30626 47 9.45423 47 12.6972C47 13.9556 46.8756 15.2264 46.6901 16.4703C46.4724 17.929 46.1624 19.3775 45.7965 20.8063L45.7581 20.9561L45.7561 20.9634L45.7177 21.1101V21.1121L45.7136 21.1245C45.6876 21.2216 45.6617 21.3188 45.6358 21.4159V21.419L45.5964 21.5615L45.5943 21.5698L45.5912 21.5812L45.5601 21.6969L45.5529 21.7227L45.5498 21.7351L45.5145 21.8643L45.5114 21.8756L45.5083 21.888L45.4907 21.9521L45.4731 22.0151L45.4689 22.0285L45.4544 22.0781L45.4306 22.1628L45.4254 22.1804L45.4181 22.2052L45.3818 22.3323L45.3435 22.4655L45.3321 22.5058L45.3279 22.5213L45.3093 22.5844L45.2937 22.636L45.2906 22.6474L45.2885 22.6525L45.2533 22.7744L45.2492 22.7879L45.246 22.8003L45.2149 22.9067L45.1994 22.9594L45.1683 23.0627L45.1476 23.1319L45.1403 23.1546L45.1216 23.2177V23.2218L45.1061 23.2704L45.103 23.2807L45.0833 23.3437L45.0677 23.3954L45.0646 23.4067L45.0449 23.4697L45.0252 23.5328L45.0211 23.5472L45.0055 23.5958L44.9858 23.6588V23.664L44.9662 23.7218L44.9465 23.7849L44.9268 23.8479V23.8499L44.9205 23.8685L44.8894 23.9677L44.8677 24.0369L44.848 24.1V24.102L44.8283 24.163L44.8076 24.226L44.7868 24.289L44.7661 24.352L44.7454 24.4151L44.7246 24.4781L44.7039 24.5411L44.6977 24.5618L44.6655 24.6599L44.6635 24.6672L44.6427 24.7302L44.622 24.7932L44.6013 24.8562C43.9731 26.7314 43.2547 28.5786 42.471 30.3804C41.877 31.7452 41.2364 33.0944 40.5356 34.4086C39.9448 35.5161 39.3052 36.6123 38.592 37.6485C37.7554 38.8635 36.1642 40.9886 34.4984 40.9876C33.4141 40.9876 32.7351 40.1745 32.394 39.2209C31.8436 37.6816 31.4175 36.0792 30.9853 34.5026C30.8909 34.1596 30.7966 33.8156 30.7023 33.4726C30.3965 32.3692 30.0834 31.2658 29.7258 30.1769C29.4034 29.1954 29.0437 28.2077 28.5959 27.2748C28.0547 26.1456 27.0482 24.3562 25.5845 24.3562H25.4207C24.2224 24.3562 23.3329 25.721 22.8312 26.6446C22.4114 27.4174 22.0662 28.2459 21.7594 29.0693C21.4142 29.995 21.1115 30.9383 20.8254 31.8836C20.5662 32.739 20.3216 33.5996 20.0769 34.4592C19.6239 36.0523 19.1761 37.6671 18.6101 39.2251C18.2618 40.1849 17.5725 41 16.4799 41C14.813 41 13.2311 38.9255 12.3831 37.7105C11.6689 36.6867 11.0293 35.6008 10.4384 34.5026C9.73872 33.2019 9.1012 31.866 8.51137 30.5137C7.1648 27.4298 6.02452 24.2074 5.19833 20.9448C4.83241 19.4994 4.52453 18.0334 4.30891 16.557C4.12232 15.2842 4 13.9866 4 12.6993C4 9.45733 5.13406 6.30833 7.30578 3.88459C9.54384 1.3813 12.633 0 15.9989 0C18.4318 0 20.956 1.28006 23.0883 2.44647C23.1837 2.49502 24.8951 3.41658 24.9915 3.46307C25.1087 3.51886 25.3595 3.64077 25.4984 3.6666H25.4974ZM41.8926 26.3057L41.9268 26.2148L41.9392 26.1817L41.9486 26.1559L41.9776 26.0764L41.9911 26.0392L41.9931 26.033L42.0263 25.942L42.0304 25.9317L42.0584 25.8542V25.8501L42.0926 25.7592L42.0947 25.753L42.1258 25.6672L42.132 25.6507L42.1538 25.5897L42.159 25.5763L42.1922 25.4854L42.215 25.4224L42.2253 25.3934L42.2502 25.3232L42.2575 25.3015L42.2896 25.2095L42.3 25.1796L42.3093 25.1517L42.3445 25.0525L42.3508 25.036L42.3539 25.0267L42.386 24.9347L42.3891 24.9265L42.4119 24.8593L42.4171 24.8428L42.4492 24.7508V24.7488L42.4803 24.6589L42.4855 24.6434L42.5083 24.5762L42.5114 24.5669L42.5425 24.475L42.5477 24.4605L42.5581 24.4295L42.5892 24.3386L42.5996 24.3066L42.6358 24.1991L42.6452 24.1723L42.6493 24.1609C42.6783 24.0752 42.7063 23.9884 42.7343 23.9016L42.7488 23.8572L42.7872 23.7384L42.8307 23.602L42.8369 23.5834L42.8763 23.4605L42.8794 23.4491L42.8857 23.4315L42.9178 23.3313L42.9302 23.292L42.9665 23.1774L42.981 23.1298L43.0069 23.0451L43.0225 22.9966L43.0515 22.9036L43.0557 22.8902L43.0702 22.8447L43.1075 22.7228V22.7176L43.1459 22.5978L43.1593 22.5523L43.1655 22.5317L43.1935 22.4387L43.1956 22.4314L43.2018 22.4108L43.234 22.3044L43.2433 22.2723C43.2702 22.1825 43.2962 22.0915 43.3231 22.0017L43.3252 21.9944L43.3314 21.9738L43.3584 21.8808L43.3615 21.8705L43.3749 21.824C43.4143 21.6876 43.4527 21.5512 43.491 21.4148V21.4107L43.4931 21.4066L43.5273 21.2816L43.5356 21.2526L43.5688 21.1338L43.5729 21.1183L43.5792 21.0966L43.6103 20.983L43.6154 20.9654L43.6528 20.828L43.6548 20.8208L43.6922 20.6792L43.6953 20.6669L43.7253 20.5511L43.7378 20.5047L43.7689 20.3858C44.1223 19.019 44.423 17.6315 44.6375 16.2347C44.8158 15.0704 44.9402 13.876 44.9402 12.6972C44.9402 11.3748 44.7029 10.0483 44.254 8.80438C43.8321 7.63384 43.2195 6.52942 42.4306 5.56447C40.5647 3.28331 37.9524 2.05284 34.998 2.05284C32.875 2.05284 30.3104 3.47237 28.4798 4.47864C28.1864 4.63981 27.8951 4.81338 27.61 4.99005C27.4877 5.06547 27.015 5.35888 26.8471 5.51178C26.9787 5.60786 27.2762 5.7494 27.3633 5.78969C27.7375 5.96326 28.1325 6.11307 28.5243 6.24221C28.712 6.3042 28.9006 6.36102 29.0914 6.41164C30.2182 6.70919 31.3906 6.90135 32.5475 7.03566C33.0969 7.09868 33.6515 7.15137 34.2029 7.18029C34.3512 7.18236 34.5958 7.20509 34.6176 7.39002C34.6394 7.57495 34.3947 7.66174 34.2485 7.69893C34.1801 7.72166 34.0868 7.73819 34.0184 7.75265C33.8163 7.79604 33.611 7.83117 33.4068 7.86216C32.6957 7.96961 31.9701 8.02023 31.2506 8.02023C29.5081 8.02023 27.806 7.67723 26.2023 6.99846C25.8063 6.83109 25.4373 6.61827 25.0672 6.40131C24.4276 6.02628 23.8233 5.60683 23.2303 5.16361C23.0769 5.04894 22.9245 4.93116 22.7721 4.81441C22.4249 4.54786 22.061 4.25859 21.692 4.0251C20.1142 3.02606 17.9011 2.05387 15.9999 2.05387C13.0455 2.05387 10.4333 3.28434 8.56734 5.5655C6.944 7.55016 6.05769 10.1423 6.05769 12.6972C6.05769 13.905 6.18001 15.1261 6.35831 16.3194C6.56978 17.7327 6.86832 19.1368 7.22181 20.5212C8.01897 23.6444 9.10639 26.7376 10.3959 29.6913C10.9599 30.9827 11.5694 32.2576 12.2359 33.4994C12.7926 34.5367 13.3959 35.5698 14.0708 36.5358C14.4077 37.0193 14.7653 37.5008 15.154 37.945C15.3759 38.1992 15.6215 38.4575 15.8879 38.6672C15.9958 38.7519 16.2974 38.9689 16.4519 38.9461C16.4674 38.9441 16.4819 38.9399 16.4944 38.9306C16.5586 38.8831 16.6405 38.6021 16.6696 38.5236C17.2179 37.0131 17.6523 35.4417 18.0908 33.8962C18.2058 33.4891 18.3219 33.0831 18.4391 32.6771C18.7594 31.5633 19.0901 30.4506 19.4632 29.3524C19.8084 28.3369 20.192 27.3213 20.6574 26.3543C21.5811 24.4368 23.0427 22.3002 25.4176 22.3002H25.5814C28.0174 22.3002 29.5019 24.4047 30.4514 26.3863C30.9148 27.3533 31.2921 28.3689 31.63 29.3855C31.9939 30.4796 32.3132 31.5892 32.6221 32.6998C32.7382 33.1182 32.8533 33.5366 32.9673 33.955C33.1881 34.763 33.4089 35.5709 33.6442 36.3746C33.8546 37.0968 34.0775 37.819 34.3304 38.5277C34.3501 38.5835 34.4476 38.8903 34.4922 38.9224C34.5004 38.9286 34.515 38.9317 34.5243 38.9337C34.5709 38.942 34.6984 38.8779 34.7378 38.8562C34.9172 38.7571 35.0913 38.6114 35.2427 38.474C35.5018 38.2384 35.7423 37.9739 35.9673 37.7064C36.2948 37.3158 36.5996 36.9026 36.8888 36.4831C37.5637 35.5037 38.167 34.4592 38.7257 33.4106C39.3954 32.1543 40.008 30.8649 40.5771 29.5601C41.0425 28.4918 41.4831 27.405 41.8936 26.3057H41.8926Z" fill="#689BCA"/>
<path fill-rule="evenodd" clip-rule="evenodd" d="M59.1797 8.42578H65.298C68.141 8.42578 71.2937 9.08477 73.0445 11.5342C73.9673 12.8258 74.3175 14.3718 74.3175 15.938C74.3175 17.6126 73.9079 19.2682 72.9017 20.6303C71.2533 22.8605 68.5443 23.6254 65.8745 23.6254H61.1732V11.3906C61.1732 10.9257 61.1606 10.1482 60.8205 9.7866C60.598 9.54972 60.2504 9.50058 59.9407 9.50058H59.181V8.42704L59.1797 8.42578ZM79.1894 9.94158V15.0472H85.1674V16.563H79.1894V22.1108H82.7466C84.529 22.1108 85.5732 21.5904 86.2141 19.8882L86.314 19.6236L87.3746 19.8882L86.477 22.3162C86.1559 23.1856 85.4442 23.6266 84.5189 23.6266H76.5626V11.3919C76.5626 10.9269 76.5499 10.1495 76.2099 9.78786C75.9874 9.55098 75.6398 9.50184 75.33 9.50184H74.5691V8.4283H84.3192C85.7274 8.4283 86.5187 9.11879 86.5187 10.5099V12.4818H85.4417V12.1655C85.4417 10.5426 84.5442 9.9441 82.9919 9.9441H79.1907L79.1894 9.94158ZM99.4797 18.7693V8.42578H101V23.8459H100.088L91.0354 12.6204V23.6254H89.5147V11.3906C89.5147 10.1747 89.1519 9.49932 87.8398 9.49932H87.3012V8.42578H89.0584C90.3882 8.42578 91.4564 8.82899 92.2945 9.8685L99.4797 18.7705V18.7693ZM109.747 9.94158V23.6254H107.119V9.94158H105.443C103.89 9.94158 102.993 10.5414 102.993 12.163V12.4793H101.914V10.5073C101.914 9.11627 102.706 8.42578 104.114 8.42578H114.728V9.94158H109.746H109.747ZM121.833 19.432H116.062L114.291 23.6254H112.605L119.075 8.42578H120.162L125.115 20.43C125.373 21.0549 125.751 21.9357 126.365 22.2948C126.644 22.4586 126.965 22.5241 127.287 22.5531L127.575 22.5796V23.5447L127.348 23.6128C127.048 23.7022 126.685 23.7362 126.371 23.7362C124.35 23.7362 123.016 22.4914 122.311 20.6643L121.836 19.432H121.833ZM130.894 22.1096H138.755V23.6254H128.266V11.3906C128.266 10.9257 128.254 10.1482 127.914 9.7866C127.691 9.54972 127.343 9.50058 127.034 9.50058H126.274V8.42704H128.585C129.133 8.42704 129.764 8.46988 130.205 8.83277C130.883 9.39096 130.896 10.5943 130.896 11.3919V22.1108L130.894 22.1096ZM63.867 10.1054V21.9936C64.5004 22.1222 65.1691 22.2204 65.8087 22.2204C66.8175 22.2204 67.7997 21.9684 68.6568 21.4304C70.5163 20.2636 71.271 18.1355 71.271 16.0262C71.271 13.9169 70.5732 11.9664 68.8641 10.7682C67.9501 10.1281 66.8769 9.83196 65.7657 9.83196C65.1375 9.83196 64.4814 9.9378 63.8683 10.1066L63.867 10.1054ZM118.946 12.6456L116.667 17.9162H121.134L118.946 12.6456Z" fill="#689BCA"/>
<path fill-rule="evenodd" clip-rule="evenodd" d="M65.4706 35.6532V33.5263C65.4706 33.118 65.5389 32.7337 65.8423 32.4339C66.2923 31.9878 67.0975 31.9173 67.6955 31.9173H67.8231V32.425H67.6955C67.4755 32.425 67.2113 32.4565 67.0584 32.6329C66.8776 32.8421 66.8713 33.2403 66.8713 33.4998V35.9531L66.8106 35.9896C65.8119 36.5982 64.7905 36.8061 63.6301 36.8061C60.983 36.8061 59.1816 34.6842 59.1816 32.1176C59.1816 29.7021 60.71 27.6836 63.2496 27.6836C63.9082 27.6836 64.5959 27.7668 65.2178 27.9898C65.6476 28.1435 66.1039 28.3867 66.3985 28.7433C66.7524 29.1717 66.7449 29.997 66.7449 30.5338V30.661H66.2594L66.2379 30.5602C65.9308 29.1515 65.0851 28.4434 63.6301 28.4434C61.5481 28.4434 60.7074 30.2843 60.7074 32.1163C60.7074 33.4923 60.9994 35.1946 62.419 35.8107C62.8008 35.977 63.2154 36.0425 63.6301 36.0425C64.2963 36.0425 64.8828 35.9506 65.4719 35.6494L65.4706 35.6532ZM70.8634 32.6909H70.1744V36.5541H68.775V29.5862C68.775 29.3015 68.7662 28.8491 68.5576 28.6286C68.4185 28.4812 68.2074 28.4472 68.0128 28.4472H67.631V27.9394H71.0631C72.6268 27.9394 74.3687 28.4535 74.3687 30.3473C74.3687 31.6237 73.5332 32.299 72.4068 32.5851L73.6507 34.6515C73.8429 34.9715 74.0679 35.318 74.3308 35.5852C74.504 35.7616 74.6936 35.9014 74.9313 35.9783C75.0413 36.0148 75.155 36.035 75.2701 36.0463L75.3851 36.0577V36.505L75.3143 36.5403C75.1095 36.6423 74.7214 36.6801 74.4952 36.6801C74.2689 36.6801 74.0666 36.6549 73.8606 36.5907C73.5104 36.4798 73.2272 36.2706 72.9757 36.0085C72.6344 35.6532 72.3462 35.2034 72.0971 34.78L70.8634 32.6896V32.6909ZM75.2574 32.2461C75.2574 30.8538 75.7403 29.4312 76.8489 28.5316C77.5568 27.9558 78.4165 27.6849 79.3253 27.6849C80.2343 27.6849 81.0938 27.9558 81.8018 28.5316C82.9104 29.4325 83.3933 30.8551 83.3933 32.2461C83.3933 33.6372 82.9104 35.061 81.8018 35.9606C81.0938 36.5365 80.2343 36.8061 79.3253 36.8061C78.4165 36.8061 77.5568 36.5352 76.8489 35.9606C75.7403 35.0597 75.2574 33.6372 75.2574 32.2461ZM84.7889 32.8169V29.5862C84.7889 29.3015 84.78 28.8491 84.5714 28.6286C84.4324 28.4812 84.2213 28.4472 84.0266 28.4472H83.6448V27.9394H84.9165C85.2161 27.9394 85.5701 27.9608 85.8115 28.1599C86.1832 28.4661 86.1882 29.1503 86.1882 29.5875V33.1974C86.1882 33.9396 86.283 34.8909 86.8532 35.4365C87.2463 35.812 87.7823 35.9203 88.3107 35.9203C88.9162 35.9203 89.5799 35.8246 90.0387 35.3962C90.691 34.7901 90.7631 33.646 90.7631 32.8169V27.9394H91.5266V32.8169C91.5266 35.3105 90.8743 36.6814 88.1577 36.6814C85.4411 36.6814 84.7889 35.25 84.7889 32.8169ZM94.831 33.1344V36.5541H93.4316V29.5862C93.4316 29.3015 93.4228 28.8491 93.2142 28.6286C93.0751 28.4812 92.864 28.4472 92.6694 28.4472H92.2876V27.9394H95.7197C97.4667 27.9394 99.0253 28.5971 99.0253 30.6005C99.0253 31.5266 98.6474 32.2751 97.8232 32.7237C97.3201 32.9971 96.6754 33.1357 96.1014 33.1357H94.831V33.1344ZM70.1757 28.737V31.8921C70.4399 31.9513 70.7382 31.9916 71.0011 31.9916C71.3981 31.9916 71.8532 31.829 72.1742 31.6035C72.604 31.3011 72.843 30.874 72.843 30.346C72.843 29.8181 72.6142 29.3506 72.173 29.0318C71.8519 28.8 71.3993 28.6362 71.0011 28.6362C70.7382 28.6362 70.4399 28.6765 70.1757 28.7357V28.737ZM81.8662 32.2461C81.8662 31.005 81.5641 29.333 80.348 28.6903C80.0307 28.5215 79.6831 28.4459 79.3241 28.4459C78.9651 28.4459 78.6187 28.5215 78.3001 28.6903C77.0841 29.333 76.7832 31.005 76.7832 32.2461C76.7832 33.4872 77.0853 35.1593 78.3001 35.8019C78.6174 35.9695 78.9651 36.0463 79.3241 36.0463C79.6831 36.0463 80.0295 35.9707 80.348 35.8019C81.5641 35.158 81.8662 33.4872 81.8662 32.2461ZM94.831 28.737V32.3356C95.0952 32.3948 95.3935 32.4351 95.6565 32.4351C96.061 32.4351 96.5085 32.2663 96.8245 32.0193C97.296 31.6501 97.4983 31.1247 97.4983 30.5363C97.4983 29.9478 97.296 29.4212 96.8245 29.0532C96.5085 28.8063 96.061 28.6374 95.6565 28.6374C95.3935 28.6374 95.0952 28.6777 94.831 28.737Z" fill="#49B858"/>
<path d="M56.973 16.0267C57.016 16.0693 57.0024 16.1376 56.9688 16.2047C56.9364 16.2687 56.8871 16.3315 56.8557 16.3667L56.8483 16.3742C49.5265 24.221 39.5011 29.8562 28.978 32.022C19.1936 34.0354 8.97853 33.0484 0.106887 28.0495L0 27.9899L0.115271 28.0293C10.8889 31.6766 20.9939 32.0039 30.029 30.1077C40.547 27.8993 49.6146 22.6766 56.5989 16.1695C56.6429 16.129 56.7331 16.0512 56.819 16.0171C56.8756 15.9947 56.9311 15.9905 56.9709 16.0278L56.973 16.0267Z" fill="#49B858"/>
</g>
<defs>
<clipPath id="clip0_1802_5542">
<rect width="139" height="41" fill="white"/>
</clipPath>
</defs>
</svg>
